<svg id="Layer_1" data-name="Layer 1" xmlns="http://www.w3.org/2000/svg" viewBox="0 0 403.41 152.86"><defs><style>.cls-1{fill:#ebe3c9;}</style></defs><title>logo</title><path class="cls-1" d="M42.48,25.41V50.68H34.85V34.41H10.22V50.68H2.66V25.41L18.21.28h7.64ZM10.87,26.64l23.26.14-12-18.14Z" transform="translate(-2.66 -0.21)"/><path class="cls-1" d="M91.08,50.68V28.22l-3.46-4.39H80.78L76.75,42H70.34l-4.1-18.21H59.47L56,28.22V50.68H48.24V25.77l7.41-9.5H71.57l1.94,9.21,1.94-9.21h16l7.34,9.5V50.68Z" transform="translate(-2.66 -0.21)"/><path class="cls-1" d="M136.44,16.27v20.3L114.33,64.36l-5.76-4.89L116.06,50,104.54,36.43V16.27h7.56V33.48l8.71,10.44L129,33.84V16.27Z" transform="translate(-2.66 -0.21)"/><path class="cls-1" d="M200.3,50.68V29.23h-21V50.68h-7.56V.28h7.56V21.45h21V.28h7.56v50.4Z" transform="translate(-2.66 -0.21)"/><path class="cls-1" d="M241.05,50.61V48.88l-1.87,1.8H221.76l-7.42-6.19V22.39l7.42-6.05h17.35l1.94,1.44V16.34h7.49V50.61Zm0-23.11-3.38-3.67H224.49l-2.59,2.09V41l2.52,2.08H238l3-3.09Z" transform="translate(-2.66 -0.21)"/><path class="cls-1" d="M280.44,50.68V26.13l-3-2.3H266.32l-3,2.3V50.61h-7.56V16.34h7.56v2.59L266,16.34h13.89l8.07,5.9V50.68Z" transform="translate(-2.66 -0.21)"/><path class="cls-1" d="M319.17,50.68V26.13l-3-2.3H305.06l-3,2.3V50.61h-7.57V16.34H302v2.59l2.73-2.59h13.9l8.06,5.9V50.68Z" transform="translate(-2.66 -0.21)"/><path class="cls-1" d="M359.2,50.61V48.88l-1.87,1.8H339.91l-7.42-6.19V22.39l7.42-6.05h17.35l1.94,1.44V16.34h7.49V50.61Zm0-23.11-3.38-3.67H342.64l-2.59,2.09V41l2.52,2.08h13.61l3-3.09Z" transform="translate(-2.66 -0.21)"/><path class="cls-1" d="M398.51,50.68V26.28l-2.95-2.38H384.83l-3.45,3.82V50.61h-7.49V.21h7.49V17.85L383,16.27h15.12l8,6.12V50.68Z" transform="translate(-2.66 -0.21)"/><path class="cls-1" d="M130.87,137.08v-38l-3.6-4.68h-9.94l-8.28,40.32h-7.2L93.57,94.39h-10L80,99.07v38H72.19V96.4l7.48-9.72H100l5.47,26.5,5.4-26.5h20.38l7.48,9.72v40.68Z" transform="translate(-2.66 -0.21)"/><path class="cls-1" d="M170.9,137.23H153.26l-8.07-6V108.64l8.07-5.9H170.9l8,5.9v22.61Zm.43-24.7-3-2.3H155.78l-3,2.3v14.83l3,2.31H168.3l3-2.31Z" transform="translate(-2.66 -0.21)"/><path class="cls-1" d="M207.62,113.4l-4.32-3.17h-7.64l-2.8,2.16v24.69h-7.49V102.67h7.49v2.81l3-2.81h9.94l6.12,4.68Z" transform="translate(-2.66 -0.21)"/><path class="cls-1" d="M244.05,153.07H228.13L220.79,147l4.75-5.91,5.19,4.39H241.6l3-2.37v-7.78l-2.37,1.8H225.33l-7.42-6.26V108.93l7.42-6.19h16.92l2.37,1.87v-1.94h7.56V147Zm.57-40.32-3-2.38H228.06l-2.59,2.16v14.62l2.59,2.16H241.6l3-2.31Z" transform="translate(-2.66 -0.21)"/><path class="cls-1" d="M285.38,137v-1.73l-1.88,1.8H266.08l-7.42-6.19v-22.1l7.42-6.05h17.35l1.95,1.44v-1.44h7.48V137Zm0-23.11L282,110.23H268.82l-2.6,2.08v15.13l2.52,2.08h13.61l3-3.09Z" transform="translate(-2.66 -0.21)"/><path class="cls-1" d="M324.76,137.08V112.53l-3-2.3H310.64l-3,2.3V137h-7.56V102.74h7.56v2.59l2.74-2.59h13.89l8.07,5.9v28.44Z" transform="translate(-2.66 -0.21)"/></svg>