<svg id="Layer_1" data-name="Layer 1" xmlns="http://www.w3.org/2000/svg" viewBox="0 0 500.04 498.49"><defs><style>.cls-1{fill:#a20191;}</style></defs><title>Email</title><path class="cls-1" d="M444.79,382.33H500Q474.08,435,420.42,464.76,359,499,270.59,499q-85.54,0-147.76-28.9T30.29,384.79Q0,328.42,0,262.05q0-72.84,34.47-135.7T128.79,32Q188.67.49,265.66.49,331,.49,381.79,25.9t77.64,72.19q26.83,46.8,26.83,102.27,0,66.09-40.7,119.5-51.06,67.39-130.91,67.4-21.51,0-32.4-7.52t-14.51-22q-30.6,29.55-70.51,29.55-43,0-71.42-29.68T97.43,278.64q0-60.91,34.21-111.21,41.48-61.17,106.28-61.17,46.14,0,68.18,35.25l6.48-28.77H381L341.87,298.6q-3.63,17.64-3.63,22.81,0,6.49,3,9.72a9.31,9.31,0,0,0,7.12,3.25q12.45,0,32.15-15,26.43-19.69,42.77-52.88a153.75,153.75,0,0,0,16.33-68.7q0-63.76-46.14-106.67T264.62,48.19q-70.24,0-119.11,28.65T71.89,157.45A248.9,248.9,0,0,0,47.14,265.68q0,54.7,27.6,99.54t77.51,65.46q49.91,20.61,114.19,20.61,61.95,0,106.54-17.24T444.79,382.33ZM164.56,275.79q0,32.93,13.35,48.48T211,339.82a55.84,55.84,0,0,0,27.73-7.26q9.86-5.18,19.44-16.33,13.74-15.81,23.72-46.14t10-56.51q0-29.29-13.61-45t-34.34-15.68q-22.3,0-41.22,17.24t-28.51,49.12Q164.56,251.17,164.56,275.79Z" transform="translate(0.04 -0.49)"/></svg>